<?xml version="1.0" standalone="no"?>
<!DOCTYPE svg PUBLIC "-//W3C//DTD SVG 20010904//EN"
 "http://www.w3.org/TR/2001/REC-SVG-20010904/DTD/svg10.dtd">
<svg version="1.0" xmlns="http://www.w3.org/2000/svg"
 width="260.000000pt" height="260.000000pt" viewBox="0 0 260.000000 260.000000"
 preserveAspectRatio="xMidYMid meet">
<metadata>
Created by potrace 1.11, written by Peter Selinger 2001-2013
</metadata>
<g transform="translate(0.000000,260.000000) scale(0.100000,-0.100000)"
fill="#000000" stroke="none">
<path d="M1903 2230 c-57 -12 -134 -46 -186 -84 -76 -54 -1487 -1506 -1508
-1551 -34 -74 -20 -154 37 -207 38 -35 74 -48 136 -48 62 0 69 4 423 211 154
90 548 317 875 505 651 374 674 391 729 507 88 187 61 380 -75 526 -107 116
-276 171 -431 141z m187 -116 c102 -30 181 -100 227 -199 23 -50 27 -74 28
-140 0 -71 -4 -88 -33 -147 -132 -269 -502 -269 -634 -1 -57 115 -42 250 40
358 90 119 235 170 372 129z"/>
<path d="M1920 1921 c-40 -21 -80 -89 -80 -134 0 -114 127 -191 230 -139 108
54 108 220 0 274 -45 23 -106 23 -150 -1z"/>
</g>
</svg>
