<?xml version="1.0" encoding="utf-8"?>
<!-- Generator: Adobe Illustrator 21.1.0, SVG Export Plug-In . SVG Version: 6.00 Build 0)  -->
<svg version="1.1" id="Layer_1" xmlns="http://www.w3.org/2000/svg" xmlns:xlink="http://www.w3.org/1999/xlink" x="0px" y="0px"
	 viewBox="0 0 213.7 273" style="enable-background:new 0 0 213.7 273;" xml:space="preserve">
<style type="text/css">
	.st0{fill:#FFFFFF;}
	.st1{fill:#070707;stroke:#000000;stroke-width:3;stroke-linecap:round;stroke-miterlimit:10;}
	.st2{fill:#050505;}
	.st3{fill:#F9F9F9;}
	.st4{fill:none;stroke:#000000;stroke-width:5;stroke-linecap:round;stroke-miterlimit:10;}
	.st5{fill:#161515;stroke:#000000;stroke-width:5;stroke-linecap:round;stroke-miterlimit:10;}
	.st6{fill:#F7F5F5;stroke:#000000;stroke-width:3;stroke-linecap:round;stroke-miterlimit:10;}
	.st7{fill:#F9F4F4;stroke:#000000;stroke-width:3;stroke-linecap:round;stroke-miterlimit:10;}
	.st8{fill:#232222;stroke:#000000;stroke-miterlimit:10;}
	.st9{fill:#0C0C0C;}
	.st10{fill:#0A0A0A;}
	.st11{fill:none;stroke:#050505;stroke-width:2;stroke-miterlimit:10;}
</style>
<rect class="st0" width="213.7" height="273"/>
<g>
	<ellipse class="st1" cx="166.9" cy="105.5" rx="12.4" ry="16"/>
	<ellipse class="st1" cx="42.9" cy="104.5" rx="12.4" ry="16"/>
	<path class="st2" d="M139.4,73.3H68.6C47.7,88.9,33.7,117.9,33.7,151c0,49.6,31.5,90,70.3,90s70.3-40.4,70.3-90
		C174.3,117.9,160.3,88.9,139.4,73.3z"/>
	<g>
		<path class="st3" d="M104.2,160.5c-23.7,0-43-19.3-43-43s19.3-43,43-43s43,19.3,43,43S127.9,160.5,104.2,160.5z"/>
		<path d="M104.2,75c23.4,0,42.5,19.1,42.5,42.5S127.6,160,104.2,160s-42.5-19.1-42.5-42.5S80.8,75,104.2,75 M104.2,74
			c-24,0-43.5,19.5-43.5,43.5S80.2,161,104.2,161s43.5-19.5,43.5-43.5S128.2,74,104.2,74L104.2,74z"/>
	</g>
	<g>
		<path class="st4" d="M151.4,217"/>
	</g>
	<circle class="st5" cx="88.2" cy="109.5" r="3"/>
	<ellipse class="st6" cx="42.8" cy="104.5" rx="8.6" ry="11"/>
	<circle class="st7" cx="104.7" cy="131" r="4.5"/>
	<path class="st8" d="M89.2,54.5"/>
	<ellipse class="st6" cx="166.8" cy="105.5" rx="8.6" ry="11"/>
	<path class="st9" d="M161.7,197.6v1.4h3c1.9,0,3.5,1.6,3.5,3.5v29c0,6.9,5.8,12.7,12.7,12.7s12.7-5.8,12.7-12.7v-11.1
		c0-2.5-2.1-4.6-4.6-4.6s-4.6,2.1-4.6,4.6v11.1c0,2.1-1.6,3.7-3.5,3.7s-3.5-1.6-3.5-3.5v-29c0-6.9-5.8-12.7-12.7-12.7h-3v8.3"/>
</g>
<g>
	<circle class="st3" cx="174.2" cy="84.5" r="12.5"/>
</g>
<path class="st10" d="M113.8,115.1c0.8,0.1,1.1-0.1,2.4-0.2l0,0l20.2-5.6l0,0l7.6-2.1l0,0l33.3-9c0.6-0.1,1-0.3,1.6-0.4l0,0l0,0
	c5.3-1.8,9.3-6.6,9.9-12.5c0.7-8-5.2-15.1-13.2-15.9c-2.8-0.3-5.4,0.3-7.8,1.4l0,0l-0.4,0.2c-0.1,0-0.2,0.1-0.3,0.1l-55.4,33.2l0,0
	c-1.7,0.9-3,2.6-3.2,4.6C108.3,112,110.7,114.8,113.8,115.1z M175.3,72.5c6.3,0.6,10.9,6.1,10.3,12.4c-0.6,6.3-6.1,10.9-12.4,10.3
	c-6.3-0.6-10.9-6.1-10.3-12.4C163.6,76.6,169.1,72,175.3,72.5z"/>
<circle class="st5" cx="174.4" cy="83.6" r="3.4"/>
<circle class="st11" cx="88.2" cy="109.5" r="13.5"/>
<g>
	<path d="M52.8,73.9h-0.2c-3.2-0.1-12.9-0.2-12.9-9.8c0-0.7,0.6-1.2,1.2-1.2h25.9c0.7,0,1.2,0.6,1.2,1.2c0,0.6-0.6,1.2-1.2,1.2H42.2
		c0.7,5.2,5.6,6,10.4,6.1h0.2c3.4,0,22.8,0,22.8,0v2.5C75.6,73.9,56.2,73.9,52.8,73.9z"/>
	<g>
		<path d="M65.1,72.7c0-22.1,18-40,40-40s40,18,40,40c0,0.7-0.6,1.2-1.2,1.2H66.3C65.6,73.9,65.1,73.4,65.1,72.7z M105.1,35.1
			c-20.3,0-36.9,16.2-37.5,36.3h75.1C142,51.3,125.4,35.1,105.1,35.1z"/>
	</g>
	<path d="M125.5,73.8c-0.7,0-1.2-0.6-1.2-1.3c0-0.3,1.5-33-19.6-37.4c-0.7-0.1-1.1-0.8-1-1.5s0.8-1.1,1.5-1c9.7,2,16.5,9.6,19.7,22
		c2.4,9.2,2,17.6,1.9,18C126.8,73.3,126.2,73.8,125.5,73.8C125.6,73.8,125.5,73.8,125.5,73.8z"/>
	<path d="M83,72.6c0-0.4-0.4-8.8,1.9-18c3.2-12.4,10-20,19.7-22c0.4-0.1,0.7,0,1,0.3c0.3,0.2,0.5,0.6,0.5,1v38.6
		c0,0.7-0.6,1.2-1.2,1.2s-1.2-0.6-1.2-1.2v-37c-19.5,5.6-18.1,36.7-18.1,37c0,0.7-0.5,1.3-1.2,1.3c0,0,0,0-0.1,0
		C83.6,73.8,83,73.3,83,72.6z"/>
	<path d="M98.8,33.7V30c0-0.1,0-0.2,0.1-0.4c0.6-2,3.7-2.8,6.6-2.8c2.3,0,5.2,0.6,6.3,2.2c0.1,0.2,0.2,0.4,0.2,0.6l0.2,4.1
		c0,0.3-0.1,0.7-0.3,0.9c-0.2,0.2-0.6,0.4-0.9,0.4h-11C99.3,35,98.8,34.4,98.8,33.7z M109.4,30.2c-0.5-0.4-1.9-0.9-4-0.9
		c-2.4,0-3.8,0.7-4.1,1v2.2h8.2L109.4,30.2z"/>
</g>
</svg>
