<?xml version="1.0" encoding="utf-8"?>
<!-- Generator: Adobe Illustrator 21.1.0, SVG Export Plug-In . SVG Version: 6.00 Build 0)  -->
<svg version="1.1" xmlns="http://www.w3.org/2000/svg" xmlns:xlink="http://www.w3.org/1999/xlink" x="0px" y="0px"
	 viewBox="0 0 449.5 444" style="enable-background:new 0 0 449.5 444;" xml:space="preserve">
<style type="text/css">
	.st0{fill:#EF9286;}
	.st1{fill:#070707;stroke:#000000;stroke-width:3;stroke-linecap:round;stroke-miterlimit:10;}
	.st2{fill:#050505;}
	.st3{fill:#D1D5AC;}
	.st4{fill:none;stroke:#000000;stroke-width:5;stroke-linecap:round;stroke-miterlimit:10;}
	.st5{fill:#EFEFEF;stroke:#050505;stroke-width:2;stroke-miterlimit:10;}
	.st6{fill:#161515;stroke:#000000;stroke-width:5;stroke-linecap:round;stroke-miterlimit:10;}
	.st7{fill:#D1D5AC;stroke:#000000;stroke-width:3;stroke-linecap:round;stroke-miterlimit:10;}
	.st8{fill:#F9F4F4;stroke:#000000;stroke-width:3;stroke-linecap:round;stroke-miterlimit:10;}
	.st9{fill:#232222;stroke:#000000;stroke-miterlimit:10;}
	.st10{fill:#0C0C0C;}
	.st11{fill:#F9F9F9;}
	.st12{fill:#102E42;}
	.st13{fill:#1B679B;}
</style>
<g id="Layer_2">
	<circle class="st0" cx="226.3" cy="229.5" r="142.8"/>
</g>
<g id="Layer_1">
	<g>
		<ellipse class="st1" cx="289.4" cy="184" rx="12.4" ry="16"/>
		<ellipse class="st1" cx="165.4" cy="183" rx="12.4" ry="16"/>
		<g>
			<path class="st2" d="M226.5,320c-39,0-70.8-40.6-70.8-90.5s31.8-90.5,70.8-90.5s70.8,40.6,70.8,90.5S265.6,320,226.5,320z"/>
			<path d="M226.5,139.5c38.8,0,70.3,40.4,70.3,90s-31.5,90-70.3,90s-70.3-40.4-70.3-90S187.7,139.5,226.5,139.5 M226.5,138.5
				c-39.4,0-71.3,40.7-71.3,91s31.9,91,71.3,91s71.3-40.7,71.3-91S265.9,138.5,226.5,138.5L226.5,138.5z"/>
		</g>
		<g>
			<path class="st3" d="M226.7,239c-23.7,0-43-19.3-43-43s19.3-43,43-43s43,19.3,43,43S250.4,239,226.7,239z"/>
			<path class="st3" d="M226.7,153.5c23.4,0,42.5,19.1,42.5,42.5s-19.1,42.5-42.5,42.5s-42.5-19.1-42.5-42.5
				S203.3,153.5,226.7,153.5 M226.7,152.5c-24,0-43.5,19.5-43.5,43.5s19.5,43.5,43.5,43.5s43.5-19.5,43.5-43.5
				S250.7,152.5,226.7,152.5L226.7,152.5z"/>
		</g>
		<g>
			<path class="st4" d="M273.9,295.5"/>
		</g>
		<circle class="st5" cx="210.7" cy="188" r="13.5"/>
		<circle class="st6" cx="210.7" cy="188" r="3"/>
		<ellipse class="st7" cx="165.3" cy="183" rx="8.6" ry="11"/>
		<circle class="st8" cx="227.2" cy="209.5" r="4.5"/>
		<path class="st9" d="M211.7,133"/>
		<ellipse class="st7" cx="289.3" cy="184" rx="8.6" ry="11"/>
		<path class="st10" d="M284.2,276.1v1.4h3c1.9,0,3.5,1.6,3.5,3.5v29c0,6.9,5.8,12.7,12.7,12.7s12.7-5.8,12.7-12.7v-11.1
			c0-2.5-2.1-4.6-4.6-4.6s-4.6,2.1-4.6,4.6V310c0,2.1-1.6,3.7-3.5,3.7c-1.9,0-3.5-1.6-3.5-3.5v-29c0-6.9-5.8-12.7-12.7-12.7h-3v8.3"
			/>
	</g>
	<g>
		<circle class="st11" cx="296.7" cy="163" r="12.5"/>
	</g>
	<path class="st12" d="M236.3,193.6c0.8,0.1,1.1-0.1,2.4-0.2l0,0l20.2-5.6l0,0l7.6-2.1l0,0l33.3-9c0.6-0.1,1-0.3,1.6-0.4l0,0l0,0
		c5.3-1.8,9.3-6.6,9.9-12.5c0.7-8-5.2-15.1-13.2-15.9c-2.8-0.3-5.4,0.3-7.8,1.4l0,0l-0.4,0.2c-0.1,0-0.2,0.1-0.3,0.1l-55.4,33.2l0,0
		c-1.7,0.9-3,2.6-3.2,4.6C230.8,190.5,233.2,193.3,236.3,193.6z M297.8,151c6.3,0.6,10.9,6.1,10.3,12.4c-0.6,6.3-6.1,10.9-12.4,10.3
		c-6.3-0.6-10.9-6.1-10.3-12.4C286.1,155.1,291.6,150.5,297.8,151z"/>
	<circle class="st6" cx="296.9" cy="162.1" r="3.4"/>
	<path class="st13" d="M228.9,121.9v-4.4c0-1.3-1.1-2.3-2.3-2.3c-1.3,0-2.3,1.1-2.3,2.3v4.4c-23.4,0.6-42.1,10.6-42.1,23.1
		c0,3.9,1.7,7.4,5,10.6c5.3-5.3,21-9.3,39.4-9.3c18.2,0,33.4,3.8,39.1,8.9c2.9-3.1,4.6-6.6,4.6-10.3
		C270.3,132.8,252,122.7,228.9,121.9z"/>
</g>
</svg>
