<svg width="24" height="24" viewBox="0 0 24 24" fill="none" xmlns="http://www.w3.org/2000/svg">
<path d="M15.4022 1.79358C15.7323 1.46339 15.7323 0.928059 15.4022 0.597875V0.597875C15.072 0.26768 14.5366 0.267687 14.2064 0.59789L8 6.80462L1.79358 0.59789C1.46339 0.267687 0.928041 0.26768 0.597846 0.597875V0.597875C0.267662 0.928059 0.267656 1.46339 0.597831 1.79358L6.80428 8.00034L0.597831 14.2071C0.267656 14.5373 0.267662 15.0726 0.597845 15.4028V15.4028C0.92804 15.733 1.4634 15.733 1.79358 15.4028L8 9.19606L14.2064 15.4028C14.5366 15.733 15.072 15.733 15.4022 15.4028V15.4028C15.7323 15.0726 15.7323 14.5373 15.4022 14.2071L9.19572 8.00034L15.4022 1.79358Z" transform="translate(4 4)" fill="black"/>
</svg>
