<svg width="24" height="24" viewBox="0 0 24 24" fill="none" xmlns="http://www.w3.org/2000/svg">
<path d="M13.6447 6.29205L14.0331 5.93101L13.6499 5.56449L13.5502 5.46915H13.6191L12.6362 4.59544L9.00369 1.3667C8.86029 1.23924 8.85623 1.01652 8.99489 0.883918L8.64931 0.522566L8.99489 0.883917C9.11758 0.766575 9.3095 0.762101 9.43753 0.873598L14.8164 5.55776C15.0433 5.75542 15.0455 6.10736 14.821 6.30781L9.43739 11.114C9.30754 11.2299 9.11038 11.2265 8.98457 11.1062C8.84583 10.9735 8.8474 10.7514 8.98802 10.6207L12.4723 7.38186H12.5V7.35611L12.6162 7.24808L13.5481 6.38186L13.6447 6.29205ZM12.1034 5.46915L12.5755 5.92065L12.0793 6.38186H0.956354C0.704316 6.38186 0.5 6.17754 0.5 5.92551C0.5 5.67347 0.704316 5.46915 0.956354 5.46915H12.1034Z" transform="translate(20 18) rotate(180)" stroke="black"/>
</svg>
